<mxfile host="app.diagrams.net" modified="2022-07-02T09:26:05.910Z" agent="5.0 (Windows NT 10.0; Win64; x64) AppleWebKit/537.36 (KHTML, like Gecko) Chrome/103.0.0.0 Safari/537.36" etag="Y3rfYqMqGrLcEh96gC-A" version="20.0.4" type="github">
  <diagram id="C1pqObuYRA7J3bohzl7f" name="Page-1">
    <mxGraphModel dx="10422" dy="3754" grid="1" gridSize="10" guides="1" tooltips="1" connect="1" arrows="1" fold="1" page="1" pageScale="1" pageWidth="3000" pageHeight="3000" math="0" shadow="0">
      <root>
        <mxCell id="0" />
        <mxCell id="1" parent="0" />
        <mxCell id="GxSKCjoKLXwjwlFbCsBX-8" value="Abstract Class" style="rounded=1;whiteSpace=wrap;html=1;fillColor=#fff2cc;strokeColor=#d6b656;" parent="1" vertex="1">
          <mxGeometry x="-8640" y="-2430" width="100" height="30" as="geometry" />
        </mxCell>
        <mxCell id="GxSKCjoKLXwjwlFbCsBX-9" value="Entity" style="rounded=1;whiteSpace=wrap;html=1;fillColor=#d5e8d4;strokeColor=#82b366;" parent="1" vertex="1">
          <mxGeometry x="-8520" y="-2430" width="100" height="30" as="geometry" />
        </mxCell>
        <mxCell id="GxSKCjoKLXwjwlFbCsBX-10" value="Aggragate" style="rounded=1;whiteSpace=wrap;html=1;fillColor=#e1d5e7;strokeColor=#9673a6;" parent="1" vertex="1">
          <mxGeometry x="-8400" y="-2430" width="100" height="30" as="geometry" />
        </mxCell>
        <mxCell id="GxSKCjoKLXwjwlFbCsBX-11" value="DP" style="rounded=1;whiteSpace=wrap;html=1;fillColor=#dae8fc;strokeColor=#6c8ebf;" parent="1" vertex="1">
          <mxGeometry x="-8280" y="-2430" width="100" height="30" as="geometry" />
        </mxCell>
        <mxCell id="GxSKCjoKLXwjwlFbCsBX-18" style="rounded=0;orthogonalLoop=1;jettySize=auto;html=1;exitX=1;exitY=0.25;exitDx=0;exitDy=0;endArrow=block;endFill=0;" parent="1" source="GxSKCjoKLXwjwlFbCsBX-14" target="GxSKCjoKLXwjwlFbCsBX-1" edge="1">
          <mxGeometry relative="1" as="geometry" />
        </mxCell>
        <mxCell id="GxSKCjoKLXwjwlFbCsBX-19" value="Extends" style="edgeLabel;html=1;align=center;verticalAlign=middle;resizable=0;points=[];" parent="GxSKCjoKLXwjwlFbCsBX-18" vertex="1" connectable="0">
          <mxGeometry x="-0.1826" y="1" relative="1" as="geometry">
            <mxPoint as="offset" />
          </mxGeometry>
        </mxCell>
        <mxCell id="GxSKCjoKLXwjwlFbCsBX-14" value="DeliverableRelation" style="swimlane;fontStyle=0;childLayout=stackLayout;horizontal=1;startSize=26;fillColor=#e1d5e7;horizontalStack=0;resizeParent=1;resizeParentMax=0;resizeLast=0;collapsible=1;marginBottom=0;strokeColor=#9673a6;" parent="1" vertex="1">
          <mxGeometry x="-8290" y="-2120" width="500" height="112" as="geometry" />
        </mxCell>
        <mxCell id="GxSKCjoKLXwjwlFbCsBX-15" value="- primary: InstanceId    拥有者ID" style="text;strokeColor=none;fillColor=none;align=left;verticalAlign=top;spacingLeft=4;spacingRight=4;overflow=hidden;rotatable=0;points=[[0,0.5],[1,0.5]];portConstraint=eastwest;" parent="GxSKCjoKLXwjwlFbCsBX-14" vertex="1">
          <mxGeometry y="26" width="500" height="26" as="geometry" />
        </mxCell>
        <mxCell id="GxSKCjoKLXwjwlFbCsBX-16" value="- secondary: DeliverableId    交付物引用ID" style="text;strokeColor=none;fillColor=none;align=left;verticalAlign=top;spacingLeft=4;spacingRight=4;overflow=hidden;rotatable=0;points=[[0,0.5],[1,0.5]];portConstraint=eastwest;" parent="GxSKCjoKLXwjwlFbCsBX-14" vertex="1">
          <mxGeometry y="52" width="500" height="26" as="geometry" />
        </mxCell>
        <mxCell id="GxSKCjoKLXwjwlFbCsBX-20" value="" style="line;strokeWidth=1;fillColor=none;align=left;verticalAlign=middle;spacingTop=-1;spacingLeft=3;spacingRight=3;rotatable=0;labelPosition=right;points=[];portConstraint=eastwest;" parent="GxSKCjoKLXwjwlFbCsBX-14" vertex="1">
          <mxGeometry y="78" width="500" height="8" as="geometry" />
        </mxCell>
        <mxCell id="GxSKCjoKLXwjwlFbCsBX-21" value="+ initializeDocument(DocumentService docService, DocInstanceId folderId)    初始化文档" style="text;strokeColor=none;fillColor=none;align=left;verticalAlign=top;spacingLeft=4;spacingRight=4;overflow=hidden;rotatable=0;points=[[0,0.5],[1,0.5]];portConstraint=eastwest;" parent="GxSKCjoKLXwjwlFbCsBX-14" vertex="1">
          <mxGeometry y="86" width="500" height="26" as="geometry" />
        </mxCell>
        <mxCell id="GxSKCjoKLXwjwlFbCsBX-22" value="InstanceId" style="swimlane;fontStyle=0;childLayout=stackLayout;horizontal=1;startSize=26;fillColor=#dae8fc;horizontalStack=0;resizeParent=1;resizeParentMax=0;resizeLast=0;collapsible=1;marginBottom=0;strokeColor=#6c8ebf;" parent="1" vertex="1">
          <mxGeometry x="-8690" y="-2270" width="330" height="112" as="geometry" />
        </mxCell>
        <mxCell id="GxSKCjoKLXwjwlFbCsBX-23" value="- id: Long    实体ID" style="text;strokeColor=none;fillColor=none;align=left;verticalAlign=top;spacingLeft=4;spacingRight=4;overflow=hidden;rotatable=0;points=[[0,0.5],[1,0.5]];portConstraint=eastwest;" parent="GxSKCjoKLXwjwlFbCsBX-22" vertex="1">
          <mxGeometry y="26" width="330" height="26" as="geometry" />
        </mxCell>
        <mxCell id="GxSKCjoKLXwjwlFbCsBX-24" value="- type: InstanceType    实体类型" style="text;strokeColor=none;fillColor=none;align=left;verticalAlign=top;spacingLeft=4;spacingRight=4;overflow=hidden;rotatable=0;points=[[0,0.5],[1,0.5]];portConstraint=eastwest;" parent="GxSKCjoKLXwjwlFbCsBX-22" vertex="1">
          <mxGeometry y="52" width="330" height="26" as="geometry" />
        </mxCell>
        <mxCell id="GxSKCjoKLXwjwlFbCsBX-25" value="" style="line;strokeWidth=1;fillColor=none;align=left;verticalAlign=middle;spacingTop=-1;spacingLeft=3;spacingRight=3;rotatable=0;labelPosition=right;points=[];portConstraint=eastwest;" parent="GxSKCjoKLXwjwlFbCsBX-22" vertex="1">
          <mxGeometry y="78" width="330" height="8" as="geometry" />
        </mxCell>
        <mxCell id="GxSKCjoKLXwjwlFbCsBX-26" value="+ of(Long id, InstanceType type)    初始化实体ID" style="text;strokeColor=none;fillColor=none;align=left;verticalAlign=top;spacingLeft=4;spacingRight=4;overflow=hidden;rotatable=0;points=[[0,0.5],[1,0.5]];portConstraint=eastwest;" parent="GxSKCjoKLXwjwlFbCsBX-22" vertex="1">
          <mxGeometry y="86" width="330" height="26" as="geometry" />
        </mxCell>
        <mxCell id="GxSKCjoKLXwjwlFbCsBX-27" value="Attachment" style="swimlane;fontStyle=0;childLayout=stackLayout;horizontal=1;startSize=26;fillColor=#e1d5e7;horizontalStack=0;resizeParent=1;resizeParentMax=0;resizeLast=0;collapsible=1;marginBottom=0;strokeColor=#9673a6;" parent="1" vertex="1">
          <mxGeometry x="-8450" y="-1746" width="500" height="138" as="geometry" />
        </mxCell>
        <mxCell id="GxSKCjoKLXwjwlFbCsBX-28" value="- primary: InstanceId    拥有者ID" style="text;strokeColor=none;fillColor=none;align=left;verticalAlign=top;spacingLeft=4;spacingRight=4;overflow=hidden;rotatable=0;points=[[0,0.5],[1,0.5]];portConstraint=eastwest;" parent="GxSKCjoKLXwjwlFbCsBX-27" vertex="1">
          <mxGeometry y="26" width="500" height="26" as="geometry" />
        </mxCell>
        <mxCell id="GxSKCjoKLXwjwlFbCsBX-29" value="- documentId: String    文档对象ID" style="text;strokeColor=none;fillColor=none;align=left;verticalAlign=top;spacingLeft=4;spacingRight=4;overflow=hidden;rotatable=0;points=[[0,0.5],[1,0.5]];portConstraint=eastwest;" parent="GxSKCjoKLXwjwlFbCsBX-27" vertex="1">
          <mxGeometry y="52" width="500" height="26" as="geometry" />
        </mxCell>
        <mxCell id="GxSKCjoKLXwjwlFbCsBX-32" value="- scope: String    作用域" style="text;strokeColor=none;fillColor=none;align=left;verticalAlign=top;spacingLeft=4;spacingRight=4;overflow=hidden;rotatable=0;points=[[0,0.5],[1,0.5]];portConstraint=eastwest;" parent="GxSKCjoKLXwjwlFbCsBX-27" vertex="1">
          <mxGeometry y="78" width="500" height="26" as="geometry" />
        </mxCell>
        <mxCell id="GxSKCjoKLXwjwlFbCsBX-30" value="" style="line;strokeWidth=1;fillColor=none;align=left;verticalAlign=middle;spacingTop=-1;spacingLeft=3;spacingRight=3;rotatable=0;labelPosition=right;points=[];portConstraint=eastwest;" parent="GxSKCjoKLXwjwlFbCsBX-27" vertex="1">
          <mxGeometry y="104" width="500" height="8" as="geometry" />
        </mxCell>
        <mxCell id="GxSKCjoKLXwjwlFbCsBX-31" value="+ initializeAttachment(DocumentService docService, DocInstanceId folderId)    初始化附件" style="text;strokeColor=none;fillColor=none;align=left;verticalAlign=top;spacingLeft=4;spacingRight=4;overflow=hidden;rotatable=0;points=[[0,0.5],[1,0.5]];portConstraint=eastwest;" parent="GxSKCjoKLXwjwlFbCsBX-27" vertex="1">
          <mxGeometry y="112" width="500" height="26" as="geometry" />
        </mxCell>
        <mxCell id="GxSKCjoKLXwjwlFbCsBX-33" style="rounded=0;orthogonalLoop=1;jettySize=auto;html=1;endArrow=block;endFill=0;" parent="1" source="GxSKCjoKLXwjwlFbCsBX-27" target="GxSKCjoKLXwjwlFbCsBX-1" edge="1">
          <mxGeometry relative="1" as="geometry">
            <mxPoint x="-7840" y="-1970" as="sourcePoint" />
            <mxPoint x="-7640" y="-1879.4444444444443" as="targetPoint" />
          </mxGeometry>
        </mxCell>
        <mxCell id="GxSKCjoKLXwjwlFbCsBX-34" value="Extends" style="edgeLabel;html=1;align=center;verticalAlign=middle;resizable=0;points=[];" parent="GxSKCjoKLXwjwlFbCsBX-33" vertex="1" connectable="0">
          <mxGeometry x="-0.1826" y="1" relative="1" as="geometry">
            <mxPoint as="offset" />
          </mxGeometry>
        </mxCell>
        <mxCell id="T1cl9DYxZVdn391FOhin-1" value="EGCHClient" style="swimlane;fontStyle=0;childLayout=stackLayout;horizontal=1;startSize=26;fillColor=#e1d5e7;horizontalStack=0;resizeParent=1;resizeParentMax=0;resizeLast=0;collapsible=1;marginBottom=0;strokeColor=#9673a6;" parent="1" vertex="1">
          <mxGeometry x="-7350" y="-2220" width="340" height="182" as="geometry" />
        </mxCell>
        <mxCell id="T1cl9DYxZVdn391FOhin-2" value="- name: String    客户名称" style="text;strokeColor=none;fillColor=none;align=left;verticalAlign=top;spacingLeft=4;spacingRight=4;overflow=hidden;rotatable=0;points=[[0,0.5],[1,0.5]];portConstraint=eastwest;" parent="T1cl9DYxZVdn391FOhin-1" vertex="1">
          <mxGeometry y="26" width="340" height="26" as="geometry" />
        </mxCell>
        <mxCell id="T1cl9DYxZVdn391FOhin-11" value="- person: String    联系人" style="text;strokeColor=none;fillColor=none;align=left;verticalAlign=top;spacingLeft=4;spacingRight=4;overflow=hidden;rotatable=0;points=[[0,0.5],[1,0.5]];portConstraint=eastwest;" parent="T1cl9DYxZVdn391FOhin-1" vertex="1">
          <mxGeometry y="52" width="340" height="26" as="geometry" />
        </mxCell>
        <mxCell id="T1cl9DYxZVdn391FOhin-12" value="- way: String    联系方式" style="text;strokeColor=none;fillColor=none;align=left;verticalAlign=top;spacingLeft=4;spacingRight=4;overflow=hidden;rotatable=0;points=[[0,0.5],[1,0.5]];portConstraint=eastwest;" parent="T1cl9DYxZVdn391FOhin-1" vertex="1">
          <mxGeometry y="78" width="340" height="26" as="geometry" />
        </mxCell>
        <mxCell id="T1cl9DYxZVdn391FOhin-15" value="- address: String    联系地址" style="text;strokeColor=none;fillColor=none;align=left;verticalAlign=top;spacingLeft=4;spacingRight=4;overflow=hidden;rotatable=0;points=[[0,0.5],[1,0.5]];portConstraint=eastwest;" parent="T1cl9DYxZVdn391FOhin-1" vertex="1">
          <mxGeometry y="104" width="340" height="26" as="geometry" />
        </mxCell>
        <mxCell id="mGTa522xNCwmpT_wLKLB-2" value="- areaCode: String    地域编码" style="text;strokeColor=none;fillColor=none;align=left;verticalAlign=top;spacingLeft=4;spacingRight=4;overflow=hidden;rotatable=0;points=[[0,0.5],[1,0.5]];portConstraint=eastwest;" parent="T1cl9DYxZVdn391FOhin-1" vertex="1">
          <mxGeometry y="130" width="340" height="26" as="geometry" />
        </mxCell>
        <mxCell id="mGTa522xNCwmpT_wLKLB-1" value="- nationCode: String    国家编码" style="text;strokeColor=none;fillColor=none;align=left;verticalAlign=top;spacingLeft=4;spacingRight=4;overflow=hidden;rotatable=0;points=[[0,0.5],[1,0.5]];portConstraint=eastwest;" parent="T1cl9DYxZVdn391FOhin-1" vertex="1">
          <mxGeometry y="156" width="340" height="26" as="geometry" />
        </mxCell>
        <mxCell id="T1cl9DYxZVdn391FOhin-6" style="rounded=0;orthogonalLoop=1;jettySize=auto;html=1;endArrow=block;endFill=0;" parent="1" source="T1cl9DYxZVdn391FOhin-1" target="GxSKCjoKLXwjwlFbCsBX-1" edge="1">
          <mxGeometry relative="1" as="geometry">
            <mxPoint x="-7840" y="-1970" as="sourcePoint" />
            <mxPoint x="-7640" y="-1879.4444444444443" as="targetPoint" />
          </mxGeometry>
        </mxCell>
        <mxCell id="T1cl9DYxZVdn391FOhin-7" value="Extends" style="edgeLabel;html=1;align=center;verticalAlign=middle;resizable=0;points=[];" parent="T1cl9DYxZVdn391FOhin-6" vertex="1" connectable="0">
          <mxGeometry x="-0.1826" y="1" relative="1" as="geometry">
            <mxPoint as="offset" />
          </mxGeometry>
        </mxCell>
        <mxCell id="T1cl9DYxZVdn391FOhin-21" value="" style="endArrow=none;dashed=1;html=1;dashPattern=1 3;strokeWidth=2;rounded=0;" parent="1" edge="1">
          <mxGeometry width="50" height="50" relative="1" as="geometry">
            <mxPoint x="-7460" y="-480" as="sourcePoint" />
            <mxPoint x="-7460" y="-2560" as="targetPoint" />
          </mxGeometry>
        </mxCell>
        <mxCell id="GxSKCjoKLXwjwlFbCsBX-1" value="BaseEntity" style="swimlane;fontStyle=2;childLayout=stackLayout;horizontal=1;startSize=26;fillColor=#fff2cc;horizontalStack=0;resizeParent=1;resizeParentMax=0;resizeLast=0;collapsible=1;marginBottom=0;strokeColor=#d6b656;" parent="1" vertex="1">
          <mxGeometry x="-7810" y="-1868" width="320" height="182" as="geometry" />
        </mxCell>
        <mxCell id="GxSKCjoKLXwjwlFbCsBX-7" value="- id: Long    唯一ID（全局唯一ID）" style="text;align=left;verticalAlign=top;spacingLeft=4;spacingRight=4;overflow=hidden;rotatable=0;points=[[0,0.5],[1,0.5]];portConstraint=eastwest;rounded=0;shadow=0;html=0;" parent="GxSKCjoKLXwjwlFbCsBX-1" vertex="1">
          <mxGeometry y="26" width="320" height="26" as="geometry" />
        </mxCell>
        <mxCell id="GxSKCjoKLXwjwlFbCsBX-2" value="- lastModifer: String    最后修改者（用户名）" style="text;align=left;verticalAlign=top;spacingLeft=4;spacingRight=4;overflow=hidden;rotatable=0;points=[[0,0.5],[1,0.5]];portConstraint=eastwest;rounded=0;shadow=0;html=0;" parent="GxSKCjoKLXwjwlFbCsBX-1" vertex="1">
          <mxGeometry y="52" width="320" height="26" as="geometry" />
        </mxCell>
        <mxCell id="GxSKCjoKLXwjwlFbCsBX-3" value="- lastModifiedTime: ZonedDateTime    最后修改时间" style="text;align=left;verticalAlign=top;spacingLeft=4;spacingRight=4;overflow=hidden;rotatable=0;points=[[0,0.5],[1,0.5]];portConstraint=eastwest;rounded=0;shadow=0;html=0;" parent="GxSKCjoKLXwjwlFbCsBX-1" vertex="1">
          <mxGeometry y="78" width="320" height="26" as="geometry" />
        </mxCell>
        <mxCell id="GxSKCjoKLXwjwlFbCsBX-4" value="- creator: String    创建者（用户名）" style="text;align=left;verticalAlign=top;spacingLeft=4;spacingRight=4;overflow=hidden;rotatable=0;points=[[0,0.5],[1,0.5]];portConstraint=eastwest;rounded=0;shadow=0;html=0;" parent="GxSKCjoKLXwjwlFbCsBX-1" vertex="1">
          <mxGeometry y="104" width="320" height="26" as="geometry" />
        </mxCell>
        <mxCell id="GxSKCjoKLXwjwlFbCsBX-5" value="- createdTime: ZonedDateTime    创建时间" style="text;align=left;verticalAlign=top;spacingLeft=4;spacingRight=4;overflow=hidden;rotatable=0;points=[[0,0.5],[1,0.5]];portConstraint=eastwest;rounded=0;shadow=0;html=0;" parent="GxSKCjoKLXwjwlFbCsBX-1" vertex="1">
          <mxGeometry y="130" width="320" height="26" as="geometry" />
        </mxCell>
        <mxCell id="GxSKCjoKLXwjwlFbCsBX-6" value="- version: Long    版本" style="text;align=left;verticalAlign=top;spacingLeft=4;spacingRight=4;overflow=hidden;rotatable=0;points=[[0,0.5],[1,0.5]];portConstraint=eastwest;" parent="GxSKCjoKLXwjwlFbCsBX-1" vertex="1">
          <mxGeometry y="156" width="320" height="26" as="geometry" />
        </mxCell>
        <mxCell id="T1cl9DYxZVdn391FOhin-22" value="EGCHConstruction 工事" style="swimlane;fontStyle=0;childLayout=stackLayout;horizontal=1;startSize=26;fillColor=#e1d5e7;horizontalStack=0;resizeParent=1;resizeParentMax=0;resizeLast=0;collapsible=1;marginBottom=0;strokeColor=#9673a6;" parent="1" vertex="1">
          <mxGeometry x="-7340" y="-1740" width="350" height="442" as="geometry" />
        </mxCell>
        <mxCell id="T1cl9DYxZVdn391FOhin-23" value="- caseNo: String    案件号" style="text;strokeColor=none;fillColor=none;align=left;verticalAlign=top;spacingLeft=4;spacingRight=4;overflow=hidden;rotatable=0;points=[[0,0.5],[1,0.5]];portConstraint=eastwest;" parent="T1cl9DYxZVdn391FOhin-22" vertex="1">
          <mxGeometry y="26" width="350" height="26" as="geometry" />
        </mxCell>
        <mxCell id="T1cl9DYxZVdn391FOhin-24" value="- constrNo: String    工事号" style="text;strokeColor=none;fillColor=none;align=left;verticalAlign=top;spacingLeft=4;spacingRight=4;overflow=hidden;rotatable=0;points=[[0,0.5],[1,0.5]];portConstraint=eastwest;" parent="T1cl9DYxZVdn391FOhin-22" vertex="1">
          <mxGeometry y="52" width="350" height="26" as="geometry" />
        </mxCell>
        <mxCell id="T1cl9DYxZVdn391FOhin-26" value="- name: String    工事名称" style="text;strokeColor=none;fillColor=none;align=left;verticalAlign=top;spacingLeft=4;spacingRight=4;overflow=hidden;rotatable=0;points=[[0,0.5],[1,0.5]];portConstraint=eastwest;" parent="T1cl9DYxZVdn391FOhin-22" vertex="1">
          <mxGeometry y="78" width="350" height="26" as="geometry" />
        </mxCell>
        <mxCell id="b5ox0SlaFc0V9Cb4xuEo-10" value="- constrStatus: ConstrStatus    工事状态" style="text;strokeColor=none;fillColor=none;align=left;verticalAlign=top;spacingLeft=4;spacingRight=4;overflow=hidden;rotatable=0;points=[[0,0.5],[1,0.5]];portConstraint=eastwest;" parent="T1cl9DYxZVdn391FOhin-22" vertex="1">
          <mxGeometry y="104" width="350" height="26" as="geometry" />
        </mxCell>
        <mxCell id="8xNMmJOKRactul_jW2mR-3" value="- auditStatus: AuditStatus    审批状态" style="text;strokeColor=none;fillColor=none;align=left;verticalAlign=top;spacingLeft=4;spacingRight=4;overflow=hidden;rotatable=0;points=[[0,0.5],[1,0.5]];portConstraint=eastwest;" parent="T1cl9DYxZVdn391FOhin-22" vertex="1">
          <mxGeometry y="130" width="350" height="26" as="geometry" />
        </mxCell>
        <mxCell id="T1cl9DYxZVdn391FOhin-25" value="- plannedAccDate: Date    验收预定日" style="text;strokeColor=none;fillColor=none;align=left;verticalAlign=top;spacingLeft=4;spacingRight=4;overflow=hidden;rotatable=0;points=[[0,0.5],[1,0.5]];portConstraint=eastwest;" parent="T1cl9DYxZVdn391FOhin-22" vertex="1">
          <mxGeometry y="156" width="350" height="26" as="geometry" />
        </mxCell>
        <mxCell id="T1cl9DYxZVdn391FOhin-27" value="- principal: UserId    工事担当" style="text;strokeColor=none;fillColor=none;align=left;verticalAlign=top;spacingLeft=4;spacingRight=4;overflow=hidden;rotatable=0;points=[[0,0.5],[1,0.5]];portConstraint=eastwest;" parent="T1cl9DYxZVdn391FOhin-22" vertex="1">
          <mxGeometry y="182" width="350" height="26" as="geometry" />
        </mxCell>
        <mxCell id="T1cl9DYxZVdn391FOhin-28" value="- principalBL: UserId    工事担当BL" style="text;strokeColor=none;fillColor=none;align=left;verticalAlign=top;spacingLeft=4;spacingRight=4;overflow=hidden;rotatable=0;points=[[0,0.5],[1,0.5]];portConstraint=eastwest;" parent="T1cl9DYxZVdn391FOhin-22" vertex="1">
          <mxGeometry y="208" width="350" height="26" as="geometry" />
        </mxCell>
        <mxCell id="8xNMmJOKRactul_jW2mR-1" value="- colorVal: String    色变" style="text;strokeColor=none;fillColor=none;align=left;verticalAlign=top;spacingLeft=4;spacingRight=4;overflow=hidden;rotatable=0;points=[[0,0.5],[1,0.5]];portConstraint=eastwest;" parent="T1cl9DYxZVdn391FOhin-22" vertex="1">
          <mxGeometry y="234" width="350" height="26" as="geometry" />
        </mxCell>
        <mxCell id="8xNMmJOKRactul_jW2mR-2" value="- preOrderPricing: Double    预定售价" style="text;strokeColor=none;fillColor=none;align=left;verticalAlign=top;spacingLeft=4;spacingRight=4;overflow=hidden;rotatable=0;points=[[0,0.5],[1,0.5]];portConstraint=eastwest;" parent="T1cl9DYxZVdn391FOhin-22" vertex="1">
          <mxGeometry y="260" width="350" height="26" as="geometry" />
        </mxCell>
        <mxCell id="T1cl9DYxZVdn391FOhin-29" value="- quantity: Integer   数量" style="text;strokeColor=none;fillColor=none;align=left;verticalAlign=top;spacingLeft=4;spacingRight=4;overflow=hidden;rotatable=0;points=[[0,0.5],[1,0.5]];portConstraint=eastwest;" parent="T1cl9DYxZVdn391FOhin-22" vertex="1">
          <mxGeometry y="286" width="350" height="26" as="geometry" />
        </mxCell>
        <mxCell id="T1cl9DYxZVdn391FOhin-30" value="- occupationCode: String    工种" style="text;strokeColor=none;fillColor=none;align=left;verticalAlign=top;spacingLeft=4;spacingRight=4;overflow=hidden;rotatable=0;points=[[0,0.5],[1,0.5]];portConstraint=eastwest;" parent="T1cl9DYxZVdn391FOhin-22" vertex="1">
          <mxGeometry y="312" width="350" height="26" as="geometry" />
        </mxCell>
        <mxCell id="T1cl9DYxZVdn391FOhin-31" value="- genericType: GenericType    专用/通用" style="text;strokeColor=none;fillColor=none;align=left;verticalAlign=top;spacingLeft=4;spacingRight=4;overflow=hidden;rotatable=0;points=[[0,0.5],[1,0.5]];portConstraint=eastwest;" parent="T1cl9DYxZVdn391FOhin-22" vertex="1">
          <mxGeometry y="338" width="350" height="26" as="geometry" />
        </mxCell>
        <mxCell id="T1cl9DYxZVdn391FOhin-32" value="- constrType: ConstructionType    新/改" style="text;strokeColor=none;fillColor=none;align=left;verticalAlign=top;spacingLeft=4;spacingRight=4;overflow=hidden;rotatable=0;points=[[0,0.5],[1,0.5]];portConstraint=eastwest;" parent="T1cl9DYxZVdn391FOhin-22" vertex="1">
          <mxGeometry y="364" width="350" height="26" as="geometry" />
        </mxCell>
        <mxCell id="T1cl9DYxZVdn391FOhin-33" value="- content: String    工事内容" style="text;strokeColor=none;fillColor=none;align=left;verticalAlign=top;spacingLeft=4;spacingRight=4;overflow=hidden;rotatable=0;points=[[0,0.5],[1,0.5]];portConstraint=eastwest;" parent="T1cl9DYxZVdn391FOhin-22" vertex="1">
          <mxGeometry y="390" width="350" height="26" as="geometry" />
        </mxCell>
        <mxCell id="T1cl9DYxZVdn391FOhin-34" value="- note: String    备注" style="text;strokeColor=none;fillColor=none;align=left;verticalAlign=top;spacingLeft=4;spacingRight=4;overflow=hidden;rotatable=0;points=[[0,0.5],[1,0.5]];portConstraint=eastwest;" parent="T1cl9DYxZVdn391FOhin-22" vertex="1">
          <mxGeometry y="416" width="350" height="26" as="geometry" />
        </mxCell>
        <mxCell id="T1cl9DYxZVdn391FOhin-37" style="rounded=0;orthogonalLoop=1;jettySize=auto;html=1;endArrow=block;endFill=0;" parent="1" source="T1cl9DYxZVdn391FOhin-22" target="GxSKCjoKLXwjwlFbCsBX-1" edge="1">
          <mxGeometry relative="1" as="geometry">
            <mxPoint x="-7031.87250996016" y="-2014" as="sourcePoint" />
            <mxPoint x="-7300" y="-1889.3703703703704" as="targetPoint" />
          </mxGeometry>
        </mxCell>
        <mxCell id="T1cl9DYxZVdn391FOhin-38" value="Extends" style="edgeLabel;html=1;align=center;verticalAlign=middle;resizable=0;points=[];" parent="T1cl9DYxZVdn391FOhin-37" vertex="1" connectable="0">
          <mxGeometry x="-0.1826" y="1" relative="1" as="geometry">
            <mxPoint as="offset" />
          </mxGeometry>
        </mxCell>
        <mxCell id="T1cl9DYxZVdn391FOhin-39" value="EGCHCase 案件" style="swimlane;fontStyle=0;childLayout=stackLayout;horizontal=1;startSize=26;fillColor=#e1d5e7;horizontalStack=0;resizeParent=1;resizeParentMax=0;resizeLast=0;collapsible=1;marginBottom=0;strokeColor=#9673a6;" parent="1" vertex="1">
          <mxGeometry x="-6960" y="-2050" width="430" height="650" as="geometry" />
        </mxCell>
        <mxCell id="T1cl9DYxZVdn391FOhin-59" value="- prodClassifCode: String    制品区分" style="text;strokeColor=none;fillColor=none;align=left;verticalAlign=top;spacingLeft=4;spacingRight=4;overflow=hidden;rotatable=0;points=[[0,0.5],[1,0.5]];portConstraint=eastwest;" parent="T1cl9DYxZVdn391FOhin-39" vertex="1">
          <mxGeometry y="26" width="430" height="26" as="geometry" />
        </mxCell>
        <mxCell id="T1cl9DYxZVdn391FOhin-56" value="- caseDomain: CaseDomain    案件领域" style="text;strokeColor=none;fillColor=none;align=left;verticalAlign=top;spacingLeft=4;spacingRight=4;overflow=hidden;rotatable=0;points=[[0,0.5],[1,0.5]];portConstraint=eastwest;" parent="T1cl9DYxZVdn391FOhin-39" vertex="1">
          <mxGeometry y="52" width="430" height="26" as="geometry" />
        </mxCell>
        <mxCell id="T1cl9DYxZVdn391FOhin-67" value="- paymentDate: Date    受付日期" style="text;strokeColor=none;fillColor=none;align=left;verticalAlign=top;spacingLeft=4;spacingRight=4;overflow=hidden;rotatable=0;points=[[0,0.5],[1,0.5]];portConstraint=eastwest;" parent="T1cl9DYxZVdn391FOhin-39" vertex="1">
          <mxGeometry y="78" width="430" height="26" as="geometry" />
        </mxCell>
        <mxCell id="T1cl9DYxZVdn391FOhin-40" value="- caseNo: String    案件号" style="text;strokeColor=none;fillColor=none;align=left;verticalAlign=top;spacingLeft=4;spacingRight=4;overflow=hidden;rotatable=0;points=[[0,0.5],[1,0.5]];portConstraint=eastwest;" parent="T1cl9DYxZVdn391FOhin-39" vertex="1">
          <mxGeometry y="104" width="430" height="26" as="geometry" />
        </mxCell>
        <mxCell id="T1cl9DYxZVdn391FOhin-41" value="- name: String    案件名" style="text;strokeColor=none;fillColor=none;align=left;verticalAlign=top;spacingLeft=4;spacingRight=4;overflow=hidden;rotatable=0;points=[[0,0.5],[1,0.5]];portConstraint=eastwest;" parent="T1cl9DYxZVdn391FOhin-39" vertex="1">
          <mxGeometry y="130" width="430" height="26" as="geometry" />
        </mxCell>
        <mxCell id="T1cl9DYxZVdn391FOhin-17" value="- continentCode: String    地域编码" style="text;strokeColor=none;fillColor=none;align=left;verticalAlign=top;spacingLeft=4;spacingRight=4;overflow=hidden;rotatable=0;points=[[0,0.5],[1,0.5]];portConstraint=eastwest;" parent="T1cl9DYxZVdn391FOhin-39" vertex="1">
          <mxGeometry y="156" width="430" height="26" as="geometry" />
        </mxCell>
        <mxCell id="T1cl9DYxZVdn391FOhin-18" value="- nationCode: String    国家编码" style="text;strokeColor=none;fillColor=none;align=left;verticalAlign=top;spacingLeft=4;spacingRight=4;overflow=hidden;rotatable=0;points=[[0,0.5],[1,0.5]];portConstraint=eastwest;" parent="T1cl9DYxZVdn391FOhin-39" vertex="1">
          <mxGeometry y="182" width="430" height="26" as="geometry" />
        </mxCell>
        <mxCell id="mGTa522xNCwmpT_wLKLB-3" value="- saleAreaId: Long    仕向地ID" style="text;strokeColor=none;fillColor=none;align=left;verticalAlign=top;spacingLeft=4;spacingRight=4;overflow=hidden;rotatable=0;points=[[0,0.5],[1,0.5]];portConstraint=eastwest;" parent="T1cl9DYxZVdn391FOhin-39" vertex="1">
          <mxGeometry y="208" width="430" height="26" as="geometry" />
        </mxCell>
        <mxCell id="y_kkda3_Ay3TBaLJsm-H-2" value="- modelName: String    机种称呼" style="text;strokeColor=none;fillColor=none;align=left;verticalAlign=top;spacingLeft=4;spacingRight=4;overflow=hidden;rotatable=0;points=[[0,0.5],[1,0.5]];portConstraint=eastwest;" vertex="1" parent="T1cl9DYxZVdn391FOhin-39">
          <mxGeometry y="234" width="430" height="26" as="geometry" />
        </mxCell>
        <mxCell id="y_kkda3_Ay3TBaLJsm-H-1" value="- model: String    机种" style="text;strokeColor=none;fillColor=none;align=left;verticalAlign=top;spacingLeft=4;spacingRight=4;overflow=hidden;rotatable=0;points=[[0,0.5],[1,0.5]];portConstraint=eastwest;" vertex="1" parent="T1cl9DYxZVdn391FOhin-39">
          <mxGeometry y="260" width="430" height="26" as="geometry" />
        </mxCell>
        <mxCell id="T1cl9DYxZVdn391FOhin-69" value="- depClassifCode: String    依赖区分" style="text;strokeColor=none;fillColor=none;align=left;verticalAlign=top;spacingLeft=4;spacingRight=4;overflow=hidden;rotatable=0;points=[[0,0.5],[1,0.5]];portConstraint=eastwest;" parent="T1cl9DYxZVdn391FOhin-39" vertex="1">
          <mxGeometry y="286" width="430" height="26" as="geometry" />
        </mxCell>
        <mxCell id="T1cl9DYxZVdn391FOhin-42" value="- deptClientId: Long    依赖元Id" style="text;strokeColor=none;fillColor=none;align=left;verticalAlign=top;spacingLeft=4;spacingRight=4;overflow=hidden;rotatable=0;points=[[0,0.5],[1,0.5]];portConstraint=eastwest;" parent="T1cl9DYxZVdn391FOhin-39" vertex="1">
          <mxGeometry y="312" width="430" height="26" as="geometry" />
        </mxCell>
        <mxCell id="mGTa522xNCwmpT_wLKLB-4" value="- clientDept: String    依赖元科" style="text;strokeColor=none;fillColor=none;align=left;verticalAlign=top;spacingLeft=4;spacingRight=4;overflow=hidden;rotatable=0;points=[[0,0.5],[1,0.5]];portConstraint=eastwest;" parent="T1cl9DYxZVdn391FOhin-39" vertex="1">
          <mxGeometry y="338" width="430" height="26" as="geometry" />
        </mxCell>
        <mxCell id="mGTa522xNCwmpT_wLKLB-5" value="- clientPrincipal: String    依赖担当" style="text;strokeColor=none;fillColor=none;align=left;verticalAlign=top;spacingLeft=4;spacingRight=4;overflow=hidden;rotatable=0;points=[[0,0.5],[1,0.5]];portConstraint=eastwest;" parent="T1cl9DYxZVdn391FOhin-39" vertex="1">
          <mxGeometry y="364" width="430" height="26" as="geometry" />
        </mxCell>
        <mxCell id="b5ox0SlaFc0V9Cb4xuEo-4" value="- receivedOrderDate: Date    收到订单日期" style="text;strokeColor=none;fillColor=none;align=left;verticalAlign=top;spacingLeft=4;spacingRight=4;overflow=hidden;rotatable=0;points=[[0,0.5],[1,0.5]];portConstraint=eastwest;" parent="T1cl9DYxZVdn391FOhin-39" vertex="1">
          <mxGeometry y="390" width="430" height="26" as="geometry" />
        </mxCell>
        <mxCell id="b5ox0SlaFc0V9Cb4xuEo-5" value="- qtnReplyTargetDate: Date    报价回复预定日期" style="text;strokeColor=none;fillColor=none;align=left;verticalAlign=top;spacingLeft=4;spacingRight=4;overflow=hidden;rotatable=0;points=[[0,0.5],[1,0.5]];portConstraint=eastwest;" parent="T1cl9DYxZVdn391FOhin-39" vertex="1">
          <mxGeometry y="416" width="430" height="26" as="geometry" />
        </mxCell>
        <mxCell id="b5ox0SlaFc0V9Cb4xuEo-6" value="- clientTelNo: String    客户电话号码" style="text;strokeColor=none;fillColor=none;align=left;verticalAlign=top;spacingLeft=4;spacingRight=4;overflow=hidden;rotatable=0;points=[[0,0.5],[1,0.5]];portConstraint=eastwest;" parent="T1cl9DYxZVdn391FOhin-39" vertex="1">
          <mxGeometry y="442" width="430" height="26" as="geometry" />
        </mxCell>
        <mxCell id="b5ox0SlaFc0V9Cb4xuEo-7" value="- depContent: String    依赖内容" style="text;strokeColor=none;fillColor=none;align=left;verticalAlign=top;spacingLeft=4;spacingRight=4;overflow=hidden;rotatable=0;points=[[0,0.5],[1,0.5]];portConstraint=eastwest;" parent="T1cl9DYxZVdn391FOhin-39" vertex="1">
          <mxGeometry y="468" width="430" height="26" as="geometry" />
        </mxCell>
        <mxCell id="b5ox0SlaFc0V9Cb4xuEo-8" value="- acceptTargetDate: Date    预定验收年月" style="text;strokeColor=none;fillColor=none;align=left;verticalAlign=top;spacingLeft=4;spacingRight=4;overflow=hidden;rotatable=0;points=[[0,0.5],[1,0.5]];portConstraint=eastwest;" parent="T1cl9DYxZVdn391FOhin-39" vertex="1">
          <mxGeometry y="494" width="430" height="26" as="geometry" />
        </mxCell>
        <mxCell id="y_kkda3_Ay3TBaLJsm-H-4" value="- acceptDate: Date    验收年月" style="text;strokeColor=none;fillColor=none;align=left;verticalAlign=top;spacingLeft=4;spacingRight=4;overflow=hidden;rotatable=0;points=[[0,0.5],[1,0.5]];portConstraint=eastwest;" vertex="1" parent="T1cl9DYxZVdn391FOhin-39">
          <mxGeometry y="520" width="430" height="26" as="geometry" />
        </mxCell>
        <mxCell id="y_kkda3_Ay3TBaLJsm-H-5" value="- massProductionDate: Date    量产年月" style="text;strokeColor=none;fillColor=none;align=left;verticalAlign=top;spacingLeft=4;spacingRight=4;overflow=hidden;rotatable=0;points=[[0,0.5],[1,0.5]];portConstraint=eastwest;" vertex="1" parent="T1cl9DYxZVdn391FOhin-39">
          <mxGeometry y="546" width="430" height="26" as="geometry" />
        </mxCell>
        <mxCell id="y_kkda3_Ay3TBaLJsm-H-3" value="- prodPrincipalBL: String    案件担当BL" style="text;strokeColor=none;fillColor=none;align=left;verticalAlign=top;spacingLeft=4;spacingRight=4;overflow=hidden;rotatable=0;points=[[0,0.5],[1,0.5]];portConstraint=eastwest;" vertex="1" parent="T1cl9DYxZVdn391FOhin-39">
          <mxGeometry y="572" width="430" height="26" as="geometry" />
        </mxCell>
        <mxCell id="y_kkda3_Ay3TBaLJsm-H-6" value="- PL: UserId    PL" style="text;strokeColor=none;fillColor=none;align=left;verticalAlign=top;spacingLeft=4;spacingRight=4;overflow=hidden;rotatable=0;points=[[0,0.5],[1,0.5]];portConstraint=eastwest;" vertex="1" parent="T1cl9DYxZVdn391FOhin-39">
          <mxGeometry y="598" width="430" height="26" as="geometry" />
        </mxCell>
        <mxCell id="b5ox0SlaFc0V9Cb4xuEo-9" value="- prodPrincipal: UserId    生管担当" style="text;strokeColor=none;fillColor=none;align=left;verticalAlign=top;spacingLeft=4;spacingRight=4;overflow=hidden;rotatable=0;points=[[0,0.5],[1,0.5]];portConstraint=eastwest;" parent="T1cl9DYxZVdn391FOhin-39" vertex="1">
          <mxGeometry y="624" width="430" height="26" as="geometry" />
        </mxCell>
        <mxCell id="T1cl9DYxZVdn391FOhin-54" style="rounded=0;orthogonalLoop=1;jettySize=auto;html=1;endArrow=block;endFill=0;" parent="1" source="T1cl9DYxZVdn391FOhin-39" target="GxSKCjoKLXwjwlFbCsBX-1" edge="1">
          <mxGeometry relative="1" as="geometry">
            <mxPoint x="-7031.87250996016" y="-2014" as="sourcePoint" />
            <mxPoint x="-7300" y="-1889.3703703703704" as="targetPoint" />
          </mxGeometry>
        </mxCell>
        <mxCell id="T1cl9DYxZVdn391FOhin-55" value="Extends" style="edgeLabel;html=1;align=center;verticalAlign=middle;resizable=0;points=[];" parent="T1cl9DYxZVdn391FOhin-54" vertex="1" connectable="0">
          <mxGeometry x="-0.1826" y="1" relative="1" as="geometry">
            <mxPoint as="offset" />
          </mxGeometry>
        </mxCell>
        <mxCell id="T1cl9DYxZVdn391FOhin-58" value="EGCHCaseDomain" style="swimlane;fontStyle=0;childLayout=stackLayout;horizontal=1;startSize=26;fillColor=#dae8fc;horizontalStack=0;resizeParent=1;resizeParentMax=0;resizeLast=0;collapsible=1;marginBottom=0;strokeColor=#6c8ebf;" parent="1" vertex="1">
          <mxGeometry x="-6350" y="-2058" width="260" height="130" as="geometry" />
        </mxCell>
        <mxCell id="T1cl9DYxZVdn391FOhin-64" value="- funcClassifCode: String    机能区分" style="text;strokeColor=none;fillColor=none;align=left;verticalAlign=top;spacingLeft=4;spacingRight=4;overflow=hidden;rotatable=0;points=[[0,0.5],[1,0.5]];portConstraint=eastwest;" parent="T1cl9DYxZVdn391FOhin-58" vertex="1">
          <mxGeometry y="26" width="260" height="26" as="geometry" />
        </mxCell>
        <mxCell id="T1cl9DYxZVdn391FOhin-65" value="- cmdtyClassifCode: String    商品区分" style="text;strokeColor=none;fillColor=none;align=left;verticalAlign=top;spacingLeft=4;spacingRight=4;overflow=hidden;rotatable=0;points=[[0,0.5],[1,0.5]];portConstraint=eastwest;" parent="T1cl9DYxZVdn391FOhin-58" vertex="1">
          <mxGeometry y="52" width="260" height="26" as="geometry" />
        </mxCell>
        <mxCell id="T1cl9DYxZVdn391FOhin-66" value="- bizTypeCode: String    业务种类" style="text;strokeColor=none;fillColor=none;align=left;verticalAlign=top;spacingLeft=4;spacingRight=4;overflow=hidden;rotatable=0;points=[[0,0.5],[1,0.5]];portConstraint=eastwest;" parent="T1cl9DYxZVdn391FOhin-58" vertex="1">
          <mxGeometry y="78" width="260" height="26" as="geometry" />
        </mxCell>
        <mxCell id="T1cl9DYxZVdn391FOhin-57" value="- domainId: CaseDomainId    领域" style="text;strokeColor=none;fillColor=none;align=left;verticalAlign=top;spacingLeft=4;spacingRight=4;overflow=hidden;rotatable=0;points=[[0,0.5],[1,0.5]];portConstraint=eastwest;" parent="T1cl9DYxZVdn391FOhin-58" vertex="1">
          <mxGeometry y="104" width="260" height="26" as="geometry" />
        </mxCell>
        <mxCell id="b5ox0SlaFc0V9Cb4xuEo-1" style="edgeStyle=orthogonalEdgeStyle;rounded=0;orthogonalLoop=1;jettySize=auto;html=1;startArrow=diamondThin;startFill=1;endArrow=open;endFill=0;" parent="1" source="T1cl9DYxZVdn391FOhin-56" target="T1cl9DYxZVdn391FOhin-58" edge="1">
          <mxGeometry relative="1" as="geometry">
            <Array as="points">
              <mxPoint x="-6260" y="-1973" />
            </Array>
          </mxGeometry>
        </mxCell>
        <mxCell id="GLM6A3cR7_lc0yM1_VjN-1" value="EGCHSaleArea" style="swimlane;fontStyle=0;childLayout=stackLayout;horizontal=1;startSize=26;fillColor=#e1d5e7;horizontalStack=0;resizeParent=1;resizeParentMax=0;resizeLast=0;collapsible=1;marginBottom=0;strokeColor=#9673a6;" parent="1" vertex="1">
          <mxGeometry x="-7440" y="-2440" width="340" height="130" as="geometry" />
        </mxCell>
        <mxCell id="GLM6A3cR7_lc0yM1_VjN-2" value="- name: String    客户名称" style="text;strokeColor=none;fillColor=none;align=left;verticalAlign=top;spacingLeft=4;spacingRight=4;overflow=hidden;rotatable=0;points=[[0,0.5],[1,0.5]];portConstraint=eastwest;" parent="GLM6A3cR7_lc0yM1_VjN-1" vertex="1">
          <mxGeometry y="26" width="340" height="26" as="geometry" />
        </mxCell>
        <mxCell id="GLM6A3cR7_lc0yM1_VjN-3" value="- code: String    代码" style="text;strokeColor=none;fillColor=none;align=left;verticalAlign=top;spacingLeft=4;spacingRight=4;overflow=hidden;rotatable=0;points=[[0,0.5],[1,0.5]];portConstraint=eastwest;" parent="GLM6A3cR7_lc0yM1_VjN-1" vertex="1">
          <mxGeometry y="52" width="340" height="26" as="geometry" />
        </mxCell>
        <mxCell id="GLM6A3cR7_lc0yM1_VjN-6" value="- continentCode: String    地域编码" style="text;strokeColor=none;fillColor=none;align=left;verticalAlign=top;spacingLeft=4;spacingRight=4;overflow=hidden;rotatable=0;points=[[0,0.5],[1,0.5]];portConstraint=eastwest;" parent="GLM6A3cR7_lc0yM1_VjN-1" vertex="1">
          <mxGeometry y="78" width="340" height="26" as="geometry" />
        </mxCell>
        <mxCell id="GLM6A3cR7_lc0yM1_VjN-7" value="- nationCode: String    国家编码" style="text;strokeColor=none;fillColor=none;align=left;verticalAlign=top;spacingLeft=4;spacingRight=4;overflow=hidden;rotatable=0;points=[[0,0.5],[1,0.5]];portConstraint=eastwest;" parent="GLM6A3cR7_lc0yM1_VjN-1" vertex="1">
          <mxGeometry y="104" width="340" height="26" as="geometry" />
        </mxCell>
        <mxCell id="GLM6A3cR7_lc0yM1_VjN-8" style="rounded=0;orthogonalLoop=1;jettySize=auto;html=1;endArrow=block;endFill=0;" parent="1" source="GLM6A3cR7_lc0yM1_VjN-1" target="GxSKCjoKLXwjwlFbCsBX-1" edge="1">
          <mxGeometry relative="1" as="geometry">
            <mxPoint x="-7321.164772727273" y="-2028" as="sourcePoint" />
            <mxPoint x="-7528.835227272728" y="-1858" as="targetPoint" />
          </mxGeometry>
        </mxCell>
        <mxCell id="GLM6A3cR7_lc0yM1_VjN-9" value="Extends" style="edgeLabel;html=1;align=center;verticalAlign=middle;resizable=0;points=[];" parent="GLM6A3cR7_lc0yM1_VjN-8" vertex="1" connectable="0">
          <mxGeometry x="-0.1826" y="1" relative="1" as="geometry">
            <mxPoint as="offset" />
          </mxGeometry>
        </mxCell>
        <mxCell id="GLM6A3cR7_lc0yM1_VjN-10" value="EGCHWorkingArea 作业区" style="swimlane;fontStyle=0;childLayout=stackLayout;horizontal=1;startSize=26;fillColor=#e1d5e7;horizontalStack=0;resizeParent=1;resizeParentMax=0;resizeLast=0;collapsible=1;marginBottom=0;strokeColor=#9673a6;" parent="1" vertex="1">
          <mxGeometry x="-7380" y="-1120" width="350" height="156" as="geometry" />
        </mxCell>
        <mxCell id="GLM6A3cR7_lc0yM1_VjN-11" value="- name: String    作业区名称" style="text;strokeColor=none;fillColor=none;align=left;verticalAlign=top;spacingLeft=4;spacingRight=4;overflow=hidden;rotatable=0;points=[[0,0.5],[1,0.5]];portConstraint=eastwest;" parent="GLM6A3cR7_lc0yM1_VjN-10" vertex="1">
          <mxGeometry y="26" width="350" height="26" as="geometry" />
        </mxCell>
        <mxCell id="GLM6A3cR7_lc0yM1_VjN-27" value="- code: String    作业区代码" style="text;strokeColor=none;fillColor=none;align=left;verticalAlign=top;spacingLeft=4;spacingRight=4;overflow=hidden;rotatable=0;points=[[0,0.5],[1,0.5]];portConstraint=eastwest;" parent="GLM6A3cR7_lc0yM1_VjN-10" vertex="1">
          <mxGeometry y="52" width="350" height="26" as="geometry" />
        </mxCell>
        <mxCell id="GLM6A3cR7_lc0yM1_VjN-28" value="- classification: WorkAreaClassification    工程区分" style="text;strokeColor=none;fillColor=none;align=left;verticalAlign=top;spacingLeft=4;spacingRight=4;overflow=hidden;rotatable=0;points=[[0,0.5],[1,0.5]];portConstraint=eastwest;" parent="GLM6A3cR7_lc0yM1_VjN-10" vertex="1">
          <mxGeometry y="78" width="350" height="26" as="geometry" />
        </mxCell>
        <mxCell id="GLM6A3cR7_lc0yM1_VjN-36" value="- deptId: String    所属部门Id" style="text;strokeColor=none;fillColor=none;align=left;verticalAlign=top;spacingLeft=4;spacingRight=4;overflow=hidden;rotatable=0;points=[[0,0.5],[1,0.5]];portConstraint=eastwest;" parent="GLM6A3cR7_lc0yM1_VjN-10" vertex="1">
          <mxGeometry y="104" width="350" height="26" as="geometry" />
        </mxCell>
        <mxCell id="GLM6A3cR7_lc0yM1_VjN-37" value="- workingProjects: Set&lt;EGCHWorkingEngineering&gt; 工程" style="text;strokeColor=none;fillColor=none;align=left;verticalAlign=top;spacingLeft=4;spacingRight=4;overflow=hidden;rotatable=0;points=[[0,0.5],[1,0.5]];portConstraint=eastwest;" parent="GLM6A3cR7_lc0yM1_VjN-10" vertex="1">
          <mxGeometry y="130" width="350" height="26" as="geometry" />
        </mxCell>
        <mxCell id="GLM6A3cR7_lc0yM1_VjN-38" style="edgeStyle=orthogonalEdgeStyle;rounded=0;orthogonalLoop=1;jettySize=auto;html=1;endArrow=diamondThin;endFill=1;startArrow=open;startFill=0;" parent="1" source="GLM6A3cR7_lc0yM1_VjN-31" target="GLM6A3cR7_lc0yM1_VjN-10" edge="1">
          <mxGeometry relative="1" as="geometry">
            <Array as="points">
              <mxPoint x="-6935" y="-980" />
            </Array>
          </mxGeometry>
        </mxCell>
        <mxCell id="GLM6A3cR7_lc0yM1_VjN-31" value="EGCHWorkingEngineering 工程" style="swimlane;fontStyle=0;childLayout=stackLayout;horizontal=1;startSize=26;fillColor=#d5e8d4;horizontalStack=0;resizeParent=1;resizeParentMax=0;resizeLast=0;collapsible=1;marginBottom=0;strokeColor=#82b366;" parent="1" vertex="1">
          <mxGeometry x="-7090" y="-910" width="350" height="78" as="geometry" />
        </mxCell>
        <mxCell id="GLM6A3cR7_lc0yM1_VjN-32" value="- name: String    名称" style="text;strokeColor=none;fillColor=none;align=left;verticalAlign=top;spacingLeft=4;spacingRight=4;overflow=hidden;rotatable=0;points=[[0,0.5],[1,0.5]];portConstraint=eastwest;" parent="GLM6A3cR7_lc0yM1_VjN-31" vertex="1">
          <mxGeometry y="26" width="350" height="26" as="geometry" />
        </mxCell>
        <mxCell id="GLM6A3cR7_lc0yM1_VjN-33" value="- code: String    代码" style="text;strokeColor=none;fillColor=none;align=left;verticalAlign=top;spacingLeft=4;spacingRight=4;overflow=hidden;rotatable=0;points=[[0,0.5],[1,0.5]];portConstraint=eastwest;" parent="GLM6A3cR7_lc0yM1_VjN-31" vertex="1">
          <mxGeometry y="52" width="350" height="26" as="geometry" />
        </mxCell>
        <mxCell id="GLM6A3cR7_lc0yM1_VjN-39" style="rounded=0;orthogonalLoop=1;jettySize=auto;html=1;endArrow=block;endFill=0;" parent="1" source="GLM6A3cR7_lc0yM1_VjN-10" target="GxSKCjoKLXwjwlFbCsBX-1" edge="1">
          <mxGeometry relative="1" as="geometry">
            <mxPoint x="-7370" y="-1525.5168539325841" as="sourcePoint" />
            <mxPoint x="-7538.253768844221" y="-1676" as="targetPoint" />
          </mxGeometry>
        </mxCell>
        <mxCell id="GLM6A3cR7_lc0yM1_VjN-40" value="Extends" style="edgeLabel;html=1;align=center;verticalAlign=middle;resizable=0;points=[];" parent="GLM6A3cR7_lc0yM1_VjN-39" vertex="1" connectable="0">
          <mxGeometry x="-0.1826" y="1" relative="1" as="geometry">
            <mxPoint as="offset" />
          </mxGeometry>
        </mxCell>
        <mxCell id="qBLD1s6twBJvVPmJfgXp-1" value="&lt;&lt;enumeration&gt;&gt;&#xa;WorkAreaClassification" style="swimlane;fontStyle=0;childLayout=stackLayout;horizontal=1;startSize=26;fillColor=#dae8fc;horizontalStack=0;resizeParent=1;resizeParentMax=0;resizeLast=0;collapsible=1;marginBottom=0;strokeColor=#6c8ebf;" parent="1" vertex="1">
          <mxGeometry x="-6890" y="-1068" width="240" height="78" as="geometry" />
        </mxCell>
        <mxCell id="qBLD1s6twBJvVPmJfgXp-2" value="COST_ENGINEERING    原价工程" style="text;strokeColor=none;fillColor=none;align=left;verticalAlign=top;spacingLeft=4;spacingRight=4;overflow=hidden;rotatable=0;points=[[0,0.5],[1,0.5]];portConstraint=eastwest;" parent="qBLD1s6twBJvVPmJfgXp-1" vertex="1">
          <mxGeometry y="26" width="240" height="26" as="geometry" />
        </mxCell>
        <mxCell id="qBLD1s6twBJvVPmJfgXp-3" value="DEFECT_ENGINEERING    问题工程" style="text;strokeColor=none;fillColor=none;align=left;verticalAlign=top;spacingLeft=4;spacingRight=4;overflow=hidden;rotatable=0;points=[[0,0.5],[1,0.5]];portConstraint=eastwest;" parent="qBLD1s6twBJvVPmJfgXp-1" vertex="1">
          <mxGeometry y="52" width="240" height="26" as="geometry" />
        </mxCell>
        <mxCell id="qBLD1s6twBJvVPmJfgXp-4" style="edgeStyle=orthogonalEdgeStyle;rounded=0;orthogonalLoop=1;jettySize=auto;html=1;exitX=1;exitY=0.5;exitDx=0;exitDy=0;startArrow=circlePlus;startFill=0;endArrow=open;endFill=0;" parent="1" source="GLM6A3cR7_lc0yM1_VjN-28" target="qBLD1s6twBJvVPmJfgXp-1" edge="1">
          <mxGeometry relative="1" as="geometry" />
        </mxCell>
        <mxCell id="op4yEBKry6xdWnr9ySDZ-1" value="BaseWorkItem" style="swimlane;fontStyle=2;align=center;verticalAlign=top;childLayout=stackLayout;horizontal=1;startSize=26;horizontalStack=0;resizeParent=1;resizeParentMax=0;resizeLast=0;collapsible=1;marginBottom=0;fillColor=#fff2cc;strokeColor=#d6b656;" parent="1" vertex="1">
          <mxGeometry x="-7960" y="-1500" width="310" height="316" as="geometry" />
        </mxCell>
        <mxCell id="op4yEBKry6xdWnr9ySDZ-2" value="- type: WorkItemType    工作项类型" style="text;strokeColor=none;fillColor=none;align=left;verticalAlign=top;spacingLeft=4;spacingRight=4;overflow=hidden;rotatable=0;points=[[0,0.5],[1,0.5]];portConstraint=eastwest;fontStyle=1" parent="op4yEBKry6xdWnr9ySDZ-1" vertex="1">
          <mxGeometry y="26" width="310" height="26" as="geometry" />
        </mxCell>
        <mxCell id="op4yEBKry6xdWnr9ySDZ-3" value="- name: String    名称" style="text;strokeColor=none;fillColor=none;align=left;verticalAlign=top;spacingLeft=4;spacingRight=4;overflow=hidden;rotatable=0;points=[[0,0.5],[1,0.5]];portConstraint=eastwest;" parent="op4yEBKry6xdWnr9ySDZ-1" vertex="1">
          <mxGeometry y="52" width="310" height="26" as="geometry" />
        </mxCell>
        <mxCell id="op4yEBKry6xdWnr9ySDZ-6" value="- projectKey: String    项目编码" style="text;strokeColor=none;fillColor=none;align=left;verticalAlign=top;spacingLeft=4;spacingRight=4;overflow=hidden;rotatable=0;points=[[0,0.5],[1,0.5]];portConstraint=eastwest;fontStyle=1" parent="op4yEBKry6xdWnr9ySDZ-1" vertex="1">
          <mxGeometry y="78" width="310" height="26" as="geometry" />
        </mxCell>
        <mxCell id="op4yEBKry6xdWnr9ySDZ-4" value="- content: String    描述" style="text;strokeColor=none;fillColor=none;align=left;verticalAlign=top;spacingLeft=4;spacingRight=4;overflow=hidden;rotatable=0;points=[[0,0.5],[1,0.5]];portConstraint=eastwest;" parent="op4yEBKry6xdWnr9ySDZ-1" vertex="1">
          <mxGeometry y="104" width="310" height="26" as="geometry" />
        </mxCell>
        <mxCell id="op4yEBKry6xdWnr9ySDZ-5" value="- code: String    编码" style="text;strokeColor=none;fillColor=none;align=left;verticalAlign=top;spacingLeft=4;spacingRight=4;overflow=hidden;rotatable=0;points=[[0,0.5],[1,0.5]];portConstraint=eastwest;" parent="op4yEBKry6xdWnr9ySDZ-1" vertex="1">
          <mxGeometry y="130" width="310" height="26" as="geometry" />
        </mxCell>
        <mxCell id="op4yEBKry6xdWnr9ySDZ-7" value="- startDate: Date    计划开始时间" style="text;strokeColor=none;fillColor=none;align=left;verticalAlign=top;spacingLeft=4;spacingRight=4;overflow=hidden;rotatable=0;points=[[0,0.5],[1,0.5]];portConstraint=eastwest;" parent="op4yEBKry6xdWnr9ySDZ-1" vertex="1">
          <mxGeometry y="156" width="310" height="26" as="geometry" />
        </mxCell>
        <mxCell id="op4yEBKry6xdWnr9ySDZ-8" value="- finishDate: Date    计划结束时间" style="text;strokeColor=none;fillColor=none;align=left;verticalAlign=top;spacingLeft=4;spacingRight=4;overflow=hidden;rotatable=0;points=[[0,0.5],[1,0.5]];portConstraint=eastwest;" parent="op4yEBKry6xdWnr9ySDZ-1" vertex="1">
          <mxGeometry y="182" width="310" height="24" as="geometry" />
        </mxCell>
        <mxCell id="op4yEBKry6xdWnr9ySDZ-9" value="- actualStartDate: Date    实际开始时间" style="text;strokeColor=none;fillColor=none;align=left;verticalAlign=top;spacingLeft=4;spacingRight=4;overflow=hidden;rotatable=0;points=[[0,0.5],[1,0.5]];portConstraint=eastwest;" parent="op4yEBKry6xdWnr9ySDZ-1" vertex="1">
          <mxGeometry y="206" width="310" height="24" as="geometry" />
        </mxCell>
        <mxCell id="op4yEBKry6xdWnr9ySDZ-10" value="- actualFinishDate: Date    实际结束时间" style="text;strokeColor=none;fillColor=none;align=left;verticalAlign=top;spacingLeft=4;spacingRight=4;overflow=hidden;rotatable=0;points=[[0,0.5],[1,0.5]];portConstraint=eastwest;" parent="op4yEBKry6xdWnr9ySDZ-1" vertex="1">
          <mxGeometry y="230" width="310" height="26" as="geometry" />
        </mxCell>
        <mxCell id="op4yEBKry6xdWnr9ySDZ-11" value="- status: WorkflowStatusID    工作项状态" style="text;strokeColor=none;fillColor=none;align=left;verticalAlign=top;spacingLeft=4;spacingRight=4;overflow=hidden;rotatable=0;points=[[0,0.5],[1,0.5]];portConstraint=eastwest;fontStyle=0" parent="op4yEBKry6xdWnr9ySDZ-1" vertex="1">
          <mxGeometry y="256" width="310" height="26" as="geometry" />
        </mxCell>
        <mxCell id="op4yEBKry6xdWnr9ySDZ-12" value="" style="line;strokeWidth=1;fillColor=none;align=left;verticalAlign=middle;spacingTop=-1;spacingLeft=3;spacingRight=3;rotatable=0;labelPosition=right;points=[];portConstraint=eastwest;" parent="op4yEBKry6xdWnr9ySDZ-1" vertex="1">
          <mxGeometry y="282" width="310" height="8" as="geometry" />
        </mxCell>
        <mxCell id="op4yEBKry6xdWnr9ySDZ-13" value="+ getExtProps(): JSONObject" style="text;strokeColor=none;fillColor=none;align=left;verticalAlign=top;spacingLeft=4;spacingRight=4;overflow=hidden;rotatable=0;points=[[0,0.5],[1,0.5]];portConstraint=eastwest;" parent="op4yEBKry6xdWnr9ySDZ-1" vertex="1">
          <mxGeometry y="290" width="310" height="26" as="geometry" />
        </mxCell>
        <mxCell id="op4yEBKry6xdWnr9ySDZ-14" style="rounded=0;orthogonalLoop=1;jettySize=auto;html=1;endArrow=block;endFill=0;" parent="1" source="op4yEBKry6xdWnr9ySDZ-1" target="GxSKCjoKLXwjwlFbCsBX-1" edge="1">
          <mxGeometry relative="1" as="geometry">
            <mxPoint x="-7370" y="-1071" as="sourcePoint" />
            <mxPoint x="-7604.698275862069" y="-1676" as="targetPoint" />
          </mxGeometry>
        </mxCell>
        <mxCell id="op4yEBKry6xdWnr9ySDZ-15" value="Extends" style="edgeLabel;html=1;align=center;verticalAlign=middle;resizable=0;points=[];" parent="op4yEBKry6xdWnr9ySDZ-14" vertex="1" connectable="0">
          <mxGeometry x="-0.1826" y="1" relative="1" as="geometry">
            <mxPoint as="offset" />
          </mxGeometry>
        </mxCell>
        <mxCell id="op4yEBKry6xdWnr9ySDZ-16" value="Task" style="swimlane;fontStyle=0;childLayout=stackLayout;horizontal=1;startSize=26;fillColor=#e1d5e7;horizontalStack=0;resizeParent=1;resizeParentMax=0;resizeLast=0;collapsible=1;marginBottom=0;strokeColor=#9673a6;" parent="1" vertex="1">
          <mxGeometry x="-7990" y="-1080" width="370" height="546" as="geometry" />
        </mxCell>
        <mxCell id="op4yEBKry6xdWnr9ySDZ-17" value="- wbsCode: String    任务分解代码" style="text;strokeColor=none;fillColor=none;align=left;verticalAlign=top;spacingLeft=4;spacingRight=4;overflow=hidden;rotatable=0;points=[[0,0.5],[1,0.5]];portConstraint=eastwest;" parent="op4yEBKry6xdWnr9ySDZ-16" vertex="1">
          <mxGeometry y="26" width="370" height="26" as="geometry" />
        </mxCell>
        <mxCell id="op4yEBKry6xdWnr9ySDZ-18" value="- milestone: Boolean    是否里程碑" style="text;strokeColor=none;fillColor=none;align=left;verticalAlign=top;spacingLeft=4;spacingRight=4;overflow=hidden;rotatable=0;points=[[0,0.5],[1,0.5]];portConstraint=eastwest;fontStyle=1" parent="op4yEBKry6xdWnr9ySDZ-16" vertex="1">
          <mxGeometry y="52" width="370" height="26" as="geometry" />
        </mxCell>
        <mxCell id="op4yEBKry6xdWnr9ySDZ-19" value="- remark: String    备注" style="text;strokeColor=none;fillColor=none;align=left;verticalAlign=top;spacingLeft=4;spacingRight=4;overflow=hidden;rotatable=0;points=[[0,0.5],[1,0.5]];portConstraint=eastwest;" parent="op4yEBKry6xdWnr9ySDZ-16" vertex="1">
          <mxGeometry y="78" width="370" height="26" as="geometry" />
        </mxCell>
        <mxCell id="op4yEBKry6xdWnr9ySDZ-20" value="- priorityId: PriorityId    优先级Id" style="text;strokeColor=none;fillColor=none;align=left;verticalAlign=top;spacingLeft=4;spacingRight=4;overflow=hidden;rotatable=0;points=[[0,0.5],[1,0.5]];portConstraint=eastwest;fontStyle=1" parent="op4yEBKry6xdWnr9ySDZ-16" vertex="1">
          <mxGeometry y="104" width="370" height="26" as="geometry" />
        </mxCell>
        <mxCell id="op4yEBKry6xdWnr9ySDZ-21" value="- parent: Task    父任务" style="text;strokeColor=none;fillColor=none;align=left;verticalAlign=top;spacingLeft=4;spacingRight=4;overflow=hidden;rotatable=0;points=[[0,0.5],[1,0.5]];portConstraint=eastwest;" parent="op4yEBKry6xdWnr9ySDZ-16" vertex="1">
          <mxGeometry y="130" width="370" height="26" as="geometry" />
        </mxCell>
        <mxCell id="op4yEBKry6xdWnr9ySDZ-48" value="- children: List&lt;Task&gt;    子任务" style="text;strokeColor=none;fillColor=none;align=left;verticalAlign=top;spacingLeft=4;spacingRight=4;overflow=hidden;rotatable=0;points=[[0,0.5],[1,0.5]];portConstraint=eastwest;" parent="op4yEBKry6xdWnr9ySDZ-16" vertex="1">
          <mxGeometry y="156" width="370" height="26" as="geometry" />
        </mxCell>
        <mxCell id="op4yEBKry6xdWnr9ySDZ-22" value="- relations: Set&lt;TaskRelation&gt;    作为前置任务时的关系" style="text;strokeColor=none;fillColor=none;align=left;verticalAlign=top;spacingLeft=4;spacingRight=4;overflow=hidden;rotatable=0;points=[[0,0.5],[1,0.5]];portConstraint=eastwest;" parent="op4yEBKry6xdWnr9ySDZ-16" vertex="1">
          <mxGeometry y="182" width="370" height="26" as="geometry" />
        </mxCell>
        <mxCell id="op4yEBKry6xdWnr9ySDZ-23" value="- sourceRelations: Set&lt;TaskRelation&gt;    作为后置任务时的关系" style="text;strokeColor=none;fillColor=none;align=left;verticalAlign=top;spacingLeft=4;spacingRight=4;overflow=hidden;rotatable=0;points=[[0,0.5],[1,0.5]];portConstraint=eastwest;" parent="op4yEBKry6xdWnr9ySDZ-16" vertex="1">
          <mxGeometry y="208" width="370" height="26" as="geometry" />
        </mxCell>
        <mxCell id="op4yEBKry6xdWnr9ySDZ-24" value="- duration: Double    计划工期（小时）" style="text;strokeColor=none;fillColor=none;align=left;verticalAlign=top;spacingLeft=4;spacingRight=4;overflow=hidden;rotatable=0;points=[[0,0.5],[1,0.5]];portConstraint=eastwest;" parent="op4yEBKry6xdWnr9ySDZ-16" vertex="1">
          <mxGeometry y="234" width="370" height="26" as="geometry" />
        </mxCell>
        <mxCell id="op4yEBKry6xdWnr9ySDZ-25" value="- actualDuration: Double    实际工期（小时）" style="text;strokeColor=none;fillColor=none;align=left;verticalAlign=top;spacingLeft=4;spacingRight=4;overflow=hidden;rotatable=0;points=[[0,0.5],[1,0.5]];portConstraint=eastwest;" parent="op4yEBKry6xdWnr9ySDZ-16" vertex="1">
          <mxGeometry y="260" width="370" height="26" as="geometry" />
        </mxCell>
        <mxCell id="op4yEBKry6xdWnr9ySDZ-26" value="- manHour: Double    计划工时（小时）" style="text;strokeColor=none;fillColor=none;align=left;verticalAlign=top;spacingLeft=4;spacingRight=4;overflow=hidden;rotatable=0;points=[[0,0.5],[1,0.5]];portConstraint=eastwest;" parent="op4yEBKry6xdWnr9ySDZ-16" vertex="1">
          <mxGeometry y="286" width="370" height="26" as="geometry" />
        </mxCell>
        <mxCell id="op4yEBKry6xdWnr9ySDZ-27" value="- actualManHour: Double    实际工时" style="text;strokeColor=none;fillColor=none;align=left;verticalAlign=top;spacingLeft=4;spacingRight=4;overflow=hidden;rotatable=0;points=[[0,0.5],[1,0.5]];portConstraint=eastwest;" parent="op4yEBKry6xdWnr9ySDZ-16" vertex="1">
          <mxGeometry y="312" width="370" height="26" as="geometry" />
        </mxCell>
        <mxCell id="op4yEBKry6xdWnr9ySDZ-28" value="- completePercent: Double    进度" style="text;strokeColor=none;fillColor=none;align=left;verticalAlign=top;spacingLeft=4;spacingRight=4;overflow=hidden;rotatable=0;points=[[0,0.5],[1,0.5]];portConstraint=eastwest;" parent="op4yEBKry6xdWnr9ySDZ-16" vertex="1">
          <mxGeometry y="338" width="370" height="26" as="geometry" />
        </mxCell>
        <mxCell id="op4yEBKry6xdWnr9ySDZ-29" value="- principal: UserId    责任人Id" style="text;strokeColor=none;fillColor=none;align=left;verticalAlign=top;spacingLeft=4;spacingRight=4;overflow=hidden;rotatable=0;points=[[0,0.5],[1,0.5]];portConstraint=eastwest;fontStyle=1" parent="op4yEBKry6xdWnr9ySDZ-16" vertex="1">
          <mxGeometry y="364" width="370" height="26" as="geometry" />
        </mxCell>
        <mxCell id="op4yEBKry6xdWnr9ySDZ-30" value="- owningUsers: Set&lt;UserId&gt;    参与人Ids" style="text;strokeColor=none;fillColor=none;align=left;verticalAlign=top;spacingLeft=4;spacingRight=4;overflow=hidden;rotatable=0;points=[[0,0.5],[1,0.5]];portConstraint=eastwest;fontStyle=1" parent="op4yEBKry6xdWnr9ySDZ-16" vertex="1">
          <mxGeometry y="390" width="370" height="26" as="geometry" />
        </mxCell>
        <mxCell id="op4yEBKry6xdWnr9ySDZ-44" value="- taskCost: EGCHTaskCost    任务成本" style="text;strokeColor=none;fillColor=none;align=left;verticalAlign=top;spacingLeft=4;spacingRight=4;overflow=hidden;rotatable=0;points=[[0,0.5],[1,0.5]];portConstraint=eastwest;" parent="op4yEBKry6xdWnr9ySDZ-16" vertex="1">
          <mxGeometry y="416" width="370" height="26" as="geometry" />
        </mxCell>
        <mxCell id="I6Oc0mgDuTj7OWiy6FYd-4" value="- defectTask: Boolean    是否不具合任务" style="text;strokeColor=none;fillColor=none;align=left;verticalAlign=top;spacingLeft=4;spacingRight=4;overflow=hidden;rotatable=0;points=[[0,0.5],[1,0.5]];portConstraint=eastwest;fontStyle=1" parent="op4yEBKry6xdWnr9ySDZ-16" vertex="1">
          <mxGeometry y="442" width="370" height="26" as="geometry" />
        </mxCell>
        <mxCell id="I6Oc0mgDuTj7OWiy6FYd-1" value="- workingArea: EntityId    作业区" style="text;strokeColor=none;fillColor=none;align=left;verticalAlign=top;spacingLeft=4;spacingRight=4;overflow=hidden;rotatable=0;points=[[0,0.5],[1,0.5]];portConstraint=eastwest;" parent="op4yEBKry6xdWnr9ySDZ-16" vertex="1">
          <mxGeometry y="468" width="370" height="26" as="geometry" />
        </mxCell>
        <mxCell id="I6Oc0mgDuTj7OWiy6FYd-2" value="- workingEngineering: EntityId    作业区工程" style="text;strokeColor=none;fillColor=none;align=left;verticalAlign=top;spacingLeft=4;spacingRight=4;overflow=hidden;rotatable=0;points=[[0,0.5],[1,0.5]];portConstraint=eastwest;" parent="op4yEBKry6xdWnr9ySDZ-16" vertex="1">
          <mxGeometry y="494" width="370" height="26" as="geometry" />
        </mxCell>
        <mxCell id="op4yEBKry6xdWnr9ySDZ-33" value="- extProps: JSONObject    任务扩展属性" style="text;strokeColor=none;fillColor=none;align=left;verticalAlign=top;spacingLeft=4;spacingRight=4;overflow=hidden;rotatable=0;points=[[0,0.5],[1,0.5]];portConstraint=eastwest;" parent="op4yEBKry6xdWnr9ySDZ-16" vertex="1">
          <mxGeometry y="520" width="370" height="26" as="geometry" />
        </mxCell>
        <mxCell id="op4yEBKry6xdWnr9ySDZ-34" style="rounded=0;orthogonalLoop=1;jettySize=auto;html=1;endArrow=block;endFill=0;" parent="1" source="op4yEBKry6xdWnr9ySDZ-16" target="op4yEBKry6xdWnr9ySDZ-1" edge="1">
          <mxGeometry relative="1" as="geometry">
            <mxPoint x="-8233.141149425288" y="-1024" as="sourcePoint" />
            <mxPoint x="-8166.8652873563215" y="-1210" as="targetPoint" />
          </mxGeometry>
        </mxCell>
        <mxCell id="op4yEBKry6xdWnr9ySDZ-35" value="Extends" style="edgeLabel;html=1;align=center;verticalAlign=middle;resizable=0;points=[];" parent="op4yEBKry6xdWnr9ySDZ-34" vertex="1" connectable="0">
          <mxGeometry x="-0.1826" y="1" relative="1" as="geometry">
            <mxPoint as="offset" />
          </mxGeometry>
        </mxCell>
        <mxCell id="op4yEBKry6xdWnr9ySDZ-37" value="EGCHTaskCost" style="swimlane;fontStyle=0;childLayout=stackLayout;horizontal=1;startSize=26;fillColor=#dae8fc;horizontalStack=0;resizeParent=1;resizeParentMax=0;resizeLast=0;collapsible=1;marginBottom=0;strokeColor=#6c8ebf;" parent="1" vertex="1">
          <mxGeometry x="-7380" y="-703" width="260" height="104" as="geometry" />
        </mxCell>
        <mxCell id="op4yEBKry6xdWnr9ySDZ-38" value="- plannedCost: BigDecimal    预计成本" style="text;strokeColor=none;fillColor=none;align=left;verticalAlign=top;spacingLeft=4;spacingRight=4;overflow=hidden;rotatable=0;points=[[0,0.5],[1,0.5]];portConstraint=eastwest;" parent="op4yEBKry6xdWnr9ySDZ-37" vertex="1">
          <mxGeometry y="26" width="260" height="26" as="geometry" />
        </mxCell>
        <mxCell id="op4yEBKry6xdWnr9ySDZ-42" value="- actualCost: BigDecimal    实际成本" style="text;strokeColor=none;fillColor=none;align=left;verticalAlign=top;spacingLeft=4;spacingRight=4;overflow=hidden;rotatable=0;points=[[0,0.5],[1,0.5]];portConstraint=eastwest;" parent="op4yEBKry6xdWnr9ySDZ-37" vertex="1">
          <mxGeometry y="52" width="260" height="26" as="geometry" />
        </mxCell>
        <mxCell id="op4yEBKry6xdWnr9ySDZ-43" value="- costVariance: BigDecimal    成本偏差" style="text;strokeColor=none;fillColor=none;align=left;verticalAlign=top;spacingLeft=4;spacingRight=4;overflow=hidden;rotatable=0;points=[[0,0.5],[1,0.5]];portConstraint=eastwest;" parent="op4yEBKry6xdWnr9ySDZ-37" vertex="1">
          <mxGeometry y="78" width="260" height="26" as="geometry" />
        </mxCell>
        <mxCell id="op4yEBKry6xdWnr9ySDZ-45" style="edgeStyle=orthogonalEdgeStyle;rounded=0;orthogonalLoop=1;jettySize=auto;html=1;startArrow=circlePlus;startFill=0;endArrow=open;endFill=0;" parent="1" source="op4yEBKry6xdWnr9ySDZ-44" target="op4yEBKry6xdWnr9ySDZ-37" edge="1">
          <mxGeometry relative="1" as="geometry">
            <mxPoint x="-7580" y="-680" as="sourcePoint" />
            <mxPoint x="-7440" y="-680" as="targetPoint" />
            <Array as="points" />
          </mxGeometry>
        </mxCell>
        <mxCell id="eNgOO5a5LfRJ-wPLDkfZ-1" value="&lt;&lt;enumeration&gt;&gt;&#xa;ExpenseType" style="swimlane;fontStyle=0;childLayout=stackLayout;horizontal=1;startSize=26;fillColor=#dae8fc;horizontalStack=0;resizeParent=1;resizeParentMax=0;resizeLast=0;collapsible=1;marginBottom=0;strokeColor=#6c8ebf;" parent="1" vertex="1">
          <mxGeometry x="-6950" y="-710" width="240" height="104" as="geometry" />
        </mxCell>
        <mxCell id="eNgOO5a5LfRJ-wPLDkfZ-2" value="BUDGUCT    预算" style="text;strokeColor=none;fillColor=none;align=left;verticalAlign=top;spacingLeft=4;spacingRight=4;overflow=hidden;rotatable=0;points=[[0,0.5],[1,0.5]];portConstraint=eastwest;" parent="eNgOO5a5LfRJ-wPLDkfZ-1" vertex="1">
          <mxGeometry y="26" width="240" height="26" as="geometry" />
        </mxCell>
        <mxCell id="eNgOO5a5LfRJ-wPLDkfZ-3" value="REAPPRAISAL    见直" style="text;strokeColor=none;fillColor=none;align=left;verticalAlign=top;spacingLeft=4;spacingRight=4;overflow=hidden;rotatable=0;points=[[0,0.5],[1,0.5]];portConstraint=eastwest;" parent="eNgOO5a5LfRJ-wPLDkfZ-1" vertex="1">
          <mxGeometry y="52" width="240" height="26" as="geometry" />
        </mxCell>
        <mxCell id="eNgOO5a5LfRJ-wPLDkfZ-4" value="ACTUAL_COST    成本" style="text;strokeColor=none;fillColor=none;align=left;verticalAlign=top;spacingLeft=4;spacingRight=4;overflow=hidden;rotatable=0;points=[[0,0.5],[1,0.5]];portConstraint=eastwest;" parent="eNgOO5a5LfRJ-wPLDkfZ-1" vertex="1">
          <mxGeometry y="78" width="240" height="26" as="geometry" />
        </mxCell>
        <mxCell id="eNgOO5a5LfRJ-wPLDkfZ-5" value="&lt;&lt;enumeration&gt;&gt;&#xa;ExpenseCategory" style="swimlane;fontStyle=0;childLayout=stackLayout;horizontal=1;startSize=26;fillColor=#dae8fc;horizontalStack=0;resizeParent=1;resizeParentMax=0;resizeLast=0;collapsible=1;marginBottom=0;strokeColor=#6c8ebf;" parent="1" vertex="1">
          <mxGeometry x="-6950" y="-590" width="240" height="156" as="geometry" />
        </mxCell>
        <mxCell id="eNgOO5a5LfRJ-wPLDkfZ-6" value="MAN_HOUR    工数卡" style="text;strokeColor=none;fillColor=none;align=left;verticalAlign=top;spacingLeft=4;spacingRight=4;overflow=hidden;rotatable=0;points=[[0,0.5],[1,0.5]];portConstraint=eastwest;" parent="eNgOO5a5LfRJ-wPLDkfZ-5" vertex="1">
          <mxGeometry y="26" width="240" height="26" as="geometry" />
        </mxCell>
        <mxCell id="eNgOO5a5LfRJ-wPLDkfZ-7" value="STOCK    储藏品" style="text;strokeColor=none;fillColor=none;align=left;verticalAlign=top;spacingLeft=4;spacingRight=4;overflow=hidden;rotatable=0;points=[[0,0.5],[1,0.5]];portConstraint=eastwest;" parent="eNgOO5a5LfRJ-wPLDkfZ-5" vertex="1">
          <mxGeometry y="52" width="240" height="26" as="geometry" />
        </mxCell>
        <mxCell id="eNgOO5a5LfRJ-wPLDkfZ-8" value="PURCHASE_BILL    购买伝票" style="text;strokeColor=none;fillColor=none;align=left;verticalAlign=top;spacingLeft=4;spacingRight=4;overflow=hidden;rotatable=0;points=[[0,0.5],[1,0.5]];portConstraint=eastwest;" parent="eNgOO5a5LfRJ-wPLDkfZ-5" vertex="1">
          <mxGeometry y="78" width="240" height="26" as="geometry" />
        </mxCell>
        <mxCell id="eNgOO5a5LfRJ-wPLDkfZ-9" value="BIZ_TRAVEL_BILL    出差伝票" style="text;strokeColor=none;fillColor=none;align=left;verticalAlign=top;spacingLeft=4;spacingRight=4;overflow=hidden;rotatable=0;points=[[0,0.5],[1,0.5]];portConstraint=eastwest;" parent="eNgOO5a5LfRJ-wPLDkfZ-5" vertex="1">
          <mxGeometry y="104" width="240" height="26" as="geometry" />
        </mxCell>
        <mxCell id="eNgOO5a5LfRJ-wPLDkfZ-10" value="OTHERS    其它" style="text;strokeColor=none;fillColor=none;align=left;verticalAlign=top;spacingLeft=4;spacingRight=4;overflow=hidden;rotatable=0;points=[[0,0.5],[1,0.5]];portConstraint=eastwest;" parent="eNgOO5a5LfRJ-wPLDkfZ-5" vertex="1">
          <mxGeometry y="130" width="240" height="26" as="geometry" />
        </mxCell>
      </root>
    </mxGraphModel>
  </diagram>
</mxfile>
